%FSLAX45Y45*%
G04 Gerber Fmt 4.5, Leading zero omitted, Abs format (unit mm)*
G04 Created by KiCad (PCBNEW (6.0.0-0)) date 2023-09-24 20:44:43*
%MOMM*%
%LPD*%
G01*
G04 APERTURE LIST*
%TA.AperFunction,Profile*%
%ADD10C,0.100000*%
%TD*%
%ADD11C,0.200000*%
%ADD12C,0.040000*%
%ADD13C,0.080000*%
%ADD14C,0.100000*%
G04 APERTURE END LIST*
D10*
X8255000Y-2921000D02*
X4953000Y-2921000D01*
X4953000Y-2921000D02*
X4953000Y-5207000D01*
X4953000Y-5207000D02*
X8255000Y-5207000D01*
X8255000Y-5207000D02*
X8255000Y-2921000D01*
X1778000Y-1778000D02*
X14224000Y-1778000D01*
X14224000Y-1778000D02*
X14224000Y-6350000D01*
X14224000Y-6350000D02*
X1778000Y-6350000D01*
X1778000Y-6350000D02*
X1778000Y-1778000D01*
D11*
D12*
X2393000Y-4107500D02*
X2433000Y-4147500D01*
X2433000Y-4107500D02*
X2393000Y-4147500D01*
X2901000Y-4488500D02*
X2941000Y-4528500D01*
X2941000Y-4488500D02*
X2901000Y-4528500D01*
X3028000Y-4869500D02*
X3068000Y-4909500D01*
X3068000Y-4869500D02*
X3028000Y-4909500D01*
X3282000Y-4679000D02*
X3322000Y-4719000D01*
X3322000Y-4679000D02*
X3282000Y-4719000D01*
X3536000Y-4425000D02*
X3576000Y-4465000D01*
X3576000Y-4425000D02*
X3536000Y-4465000D01*
X3599500Y-3218500D02*
X3639500Y-3258500D01*
X3639500Y-3218500D02*
X3599500Y-3258500D01*
X3790000Y-4298000D02*
X3830000Y-4338000D01*
X3830000Y-4298000D02*
X3790000Y-4338000D01*
X4488500Y-3853500D02*
X4528500Y-3893500D01*
X4528500Y-3853500D02*
X4488500Y-3893500D01*
X6139500Y-2012000D02*
X6179500Y-2052000D01*
X6179500Y-2012000D02*
X6139500Y-2052000D01*
X7917500Y-2202500D02*
X7957500Y-2242500D01*
X7957500Y-2202500D02*
X7917500Y-2242500D01*
X8425500Y-3472500D02*
X8465500Y-3512500D01*
X8465500Y-3472500D02*
X8425500Y-3512500D01*
X8425500Y-4552000D02*
X8465500Y-4592000D01*
X8465500Y-4552000D02*
X8425500Y-4592000D01*
X8743000Y-2202500D02*
X8783000Y-2242500D01*
X8783000Y-2202500D02*
X8743000Y-2242500D01*
X8743000Y-4806000D02*
X8783000Y-4846000D01*
X8783000Y-4806000D02*
X8743000Y-4846000D01*
X8743000Y-4996500D02*
X8783000Y-5036500D01*
X8783000Y-4996500D02*
X8743000Y-5036500D01*
X8743000Y-5123500D02*
X8783000Y-5163500D01*
X8783000Y-5123500D02*
X8743000Y-5163500D01*
X8743000Y-5250500D02*
X8783000Y-5290500D01*
X8783000Y-5250500D02*
X8743000Y-5290500D01*
X8933500Y-4107500D02*
X8973500Y-4147500D01*
X8973500Y-4107500D02*
X8933500Y-4147500D01*
X8997000Y-3028000D02*
X9037000Y-3068000D01*
X9037000Y-3028000D02*
X8997000Y-3068000D01*
X9632000Y-3726500D02*
X9672000Y-3766500D01*
X9672000Y-3726500D02*
X9632000Y-3766500D01*
X9632000Y-4996500D02*
X9672000Y-5036500D01*
X9672000Y-4996500D02*
X9632000Y-5036500D01*
X9695500Y-6076000D02*
X9735500Y-6116000D01*
X9735500Y-6076000D02*
X9695500Y-6116000D01*
X11092500Y-5822000D02*
X11132500Y-5862000D01*
X11132500Y-5822000D02*
X11092500Y-5862000D01*
X11791000Y-5504500D02*
X11831000Y-5544500D01*
X11831000Y-5504500D02*
X11791000Y-5544500D01*
X13886500Y-3409000D02*
X13926500Y-3449000D01*
X13926500Y-3409000D02*
X13886500Y-3449000D01*
X13886500Y-4679000D02*
X13926500Y-4719000D01*
X13926500Y-4679000D02*
X13886500Y-4719000D01*
D13*
X2072000Y-2794000D02*
G75*
G03*
X2072000Y-2794000I-40000J0D01*
G01*
X2072000Y-5334000D02*
G75*
G03*
X2072000Y-5334000I-40000J0D01*
G01*
X2326000Y-2794000D02*
G75*
G03*
X2326000Y-2794000I-40000J0D01*
G01*
X2326000Y-5334000D02*
G75*
G03*
X2326000Y-5334000I-40000J0D01*
G01*
X2580000Y-2794000D02*
G75*
G03*
X2580000Y-2794000I-40000J0D01*
G01*
X2580000Y-5334000D02*
G75*
G03*
X2580000Y-5334000I-40000J0D01*
G01*
X2834000Y-2032000D02*
G75*
G03*
X2834000Y-2032000I-40000J0D01*
G01*
X2834000Y-2413000D02*
G75*
G03*
X2834000Y-2413000I-40000J0D01*
G01*
X2834000Y-2794000D02*
G75*
G03*
X2834000Y-2794000I-40000J0D01*
G01*
X2834000Y-5334000D02*
G75*
G03*
X2834000Y-5334000I-40000J0D01*
G01*
X2834000Y-5715000D02*
G75*
G03*
X2834000Y-5715000I-40000J0D01*
G01*
X2834000Y-6096000D02*
G75*
G03*
X2834000Y-6096000I-40000J0D01*
G01*
X3088000Y-2794000D02*
G75*
G03*
X3088000Y-2794000I-40000J0D01*
G01*
X3088000Y-5334000D02*
G75*
G03*
X3088000Y-5334000I-40000J0D01*
G01*
X3342000Y-2794000D02*
G75*
G03*
X3342000Y-2794000I-40000J0D01*
G01*
X3342000Y-5334000D02*
G75*
G03*
X3342000Y-5334000I-40000J0D01*
G01*
X3596000Y-2794000D02*
G75*
G03*
X3596000Y-2794000I-40000J0D01*
G01*
X3596000Y-5334000D02*
G75*
G03*
X3596000Y-5334000I-40000J0D01*
G01*
X3850000Y-2032000D02*
G75*
G03*
X3850000Y-2032000I-40000J0D01*
G01*
X3850000Y-2413000D02*
G75*
G03*
X3850000Y-2413000I-40000J0D01*
G01*
X3850000Y-2794000D02*
G75*
G03*
X3850000Y-2794000I-40000J0D01*
G01*
X3850000Y-5334000D02*
G75*
G03*
X3850000Y-5334000I-40000J0D01*
G01*
X3850000Y-5715000D02*
G75*
G03*
X3850000Y-5715000I-40000J0D01*
G01*
X3850000Y-6096000D02*
G75*
G03*
X3850000Y-6096000I-40000J0D01*
G01*
X4104000Y-2794000D02*
G75*
G03*
X4104000Y-2794000I-40000J0D01*
G01*
X4104000Y-5334000D02*
G75*
G03*
X4104000Y-5334000I-40000J0D01*
G01*
X4231000Y-2032000D02*
G75*
G03*
X4231000Y-2032000I-40000J0D01*
G01*
X4231000Y-2413000D02*
G75*
G03*
X4231000Y-2413000I-40000J0D01*
G01*
X4231000Y-5715000D02*
G75*
G03*
X4231000Y-5715000I-40000J0D01*
G01*
X4231000Y-6096000D02*
G75*
G03*
X4231000Y-6096000I-40000J0D01*
G01*
X4358000Y-2794000D02*
G75*
G03*
X4358000Y-2794000I-40000J0D01*
G01*
X4358000Y-5334000D02*
G75*
G03*
X4358000Y-5334000I-40000J0D01*
G01*
X5247000Y-2032000D02*
G75*
G03*
X5247000Y-2032000I-40000J0D01*
G01*
X5247000Y-2413000D02*
G75*
G03*
X5247000Y-2413000I-40000J0D01*
G01*
X5247000Y-5715000D02*
G75*
G03*
X5247000Y-5715000I-40000J0D01*
G01*
X5247000Y-6096000D02*
G75*
G03*
X5247000Y-6096000I-40000J0D01*
G01*
X5628000Y-2032000D02*
G75*
G03*
X5628000Y-2032000I-40000J0D01*
G01*
X5628000Y-2413000D02*
G75*
G03*
X5628000Y-2413000I-40000J0D01*
G01*
X5628000Y-5715000D02*
G75*
G03*
X5628000Y-5715000I-40000J0D01*
G01*
X5628000Y-6096000D02*
G75*
G03*
X5628000Y-6096000I-40000J0D01*
G01*
X6644000Y-2032000D02*
G75*
G03*
X6644000Y-2032000I-40000J0D01*
G01*
X6644000Y-2413000D02*
G75*
G03*
X6644000Y-2413000I-40000J0D01*
G01*
X6644000Y-5715000D02*
G75*
G03*
X6644000Y-5715000I-40000J0D01*
G01*
X6644000Y-6096000D02*
G75*
G03*
X6644000Y-6096000I-40000J0D01*
G01*
X9882500Y-4381500D02*
G75*
G03*
X9882500Y-4381500I-40000J0D01*
G01*
X9882500Y-4826000D02*
G75*
G03*
X9882500Y-4826000I-40000J0D01*
G01*
X10200000Y-3429000D02*
G75*
G03*
X10200000Y-3429000I-40000J0D01*
G01*
X10200000Y-3683000D02*
G75*
G03*
X10200000Y-3683000I-40000J0D01*
G01*
X10200000Y-3937000D02*
G75*
G03*
X10200000Y-3937000I-40000J0D01*
G01*
X10453000Y-5333000D02*
G75*
G03*
X10453000Y-5333000I-40000J0D01*
G01*
X10453000Y-6095000D02*
G75*
G03*
X10453000Y-6095000I-40000J0D01*
G01*
X10707000Y-5333000D02*
G75*
G03*
X10707000Y-5333000I-40000J0D01*
G01*
X10707000Y-6095000D02*
G75*
G03*
X10707000Y-6095000I-40000J0D01*
G01*
X10708000Y-3429000D02*
G75*
G03*
X10708000Y-3429000I-40000J0D01*
G01*
X10708000Y-3683000D02*
G75*
G03*
X10708000Y-3683000I-40000J0D01*
G01*
X10708000Y-3937000D02*
G75*
G03*
X10708000Y-3937000I-40000J0D01*
G01*
X10898500Y-4381500D02*
G75*
G03*
X10898500Y-4381500I-40000J0D01*
G01*
X10898500Y-4826000D02*
G75*
G03*
X10898500Y-4826000I-40000J0D01*
G01*
X10961000Y-5333000D02*
G75*
G03*
X10961000Y-5333000I-40000J0D01*
G01*
X10961000Y-6095000D02*
G75*
G03*
X10961000Y-6095000I-40000J0D01*
G01*
X11215000Y-5333000D02*
G75*
G03*
X11215000Y-5333000I-40000J0D01*
G01*
X11215000Y-6095000D02*
G75*
G03*
X11215000Y-6095000I-40000J0D01*
G01*
X11216000Y-3429000D02*
G75*
G03*
X11216000Y-3429000I-40000J0D01*
G01*
X11216000Y-3683000D02*
G75*
G03*
X11216000Y-3683000I-40000J0D01*
G01*
X11216000Y-3937000D02*
G75*
G03*
X11216000Y-3937000I-40000J0D01*
G01*
X11216000Y-4381500D02*
G75*
G03*
X11216000Y-4381500I-40000J0D01*
G01*
X11216000Y-4826000D02*
G75*
G03*
X11216000Y-4826000I-40000J0D01*
G01*
X11469000Y-5333000D02*
G75*
G03*
X11469000Y-5333000I-40000J0D01*
G01*
X11469000Y-6095000D02*
G75*
G03*
X11469000Y-6095000I-40000J0D01*
G01*
X11723000Y-5333000D02*
G75*
G03*
X11723000Y-5333000I-40000J0D01*
G01*
X11723000Y-6095000D02*
G75*
G03*
X11723000Y-6095000I-40000J0D01*
G01*
X11724000Y-3429000D02*
G75*
G03*
X11724000Y-3429000I-40000J0D01*
G01*
X11724000Y-3683000D02*
G75*
G03*
X11724000Y-3683000I-40000J0D01*
G01*
X11724000Y-3937000D02*
G75*
G03*
X11724000Y-3937000I-40000J0D01*
G01*
X11977000Y-5333000D02*
G75*
G03*
X11977000Y-5333000I-40000J0D01*
G01*
X11977000Y-6095000D02*
G75*
G03*
X11977000Y-6095000I-40000J0D01*
G01*
X12231000Y-5333000D02*
G75*
G03*
X12231000Y-5333000I-40000J0D01*
G01*
X12231000Y-6095000D02*
G75*
G03*
X12231000Y-6095000I-40000J0D01*
G01*
X12232000Y-3429000D02*
G75*
G03*
X12232000Y-3429000I-40000J0D01*
G01*
X12232000Y-3683000D02*
G75*
G03*
X12232000Y-3683000I-40000J0D01*
G01*
X12232000Y-3937000D02*
G75*
G03*
X12232000Y-3937000I-40000J0D01*
G01*
X12232000Y-4381500D02*
G75*
G03*
X12232000Y-4381500I-40000J0D01*
G01*
X12232000Y-4826000D02*
G75*
G03*
X12232000Y-4826000I-40000J0D01*
G01*
X12549500Y-4381500D02*
G75*
G03*
X12549500Y-4381500I-40000J0D01*
G01*
X12549500Y-4826000D02*
G75*
G03*
X12549500Y-4826000I-40000J0D01*
G01*
X12740000Y-3429000D02*
G75*
G03*
X12740000Y-3429000I-40000J0D01*
G01*
X12740000Y-3683000D02*
G75*
G03*
X12740000Y-3683000I-40000J0D01*
G01*
X12740000Y-3937000D02*
G75*
G03*
X12740000Y-3937000I-40000J0D01*
G01*
X13565500Y-4381500D02*
G75*
G03*
X13565500Y-4381500I-40000J0D01*
G01*
X13565500Y-4826000D02*
G75*
G03*
X13565500Y-4826000I-40000J0D01*
G01*
D14*
X10414000Y-2110000D02*
X10414000Y-2210000D01*
X10364000Y-2160000D02*
X10464000Y-2160000D01*
X10414000Y-2364000D02*
X10414000Y-2464000D01*
X10364000Y-2414000D02*
X10464000Y-2414000D01*
X10414000Y-2618000D02*
X10414000Y-2718000D01*
X10364000Y-2668000D02*
X10464000Y-2668000D01*
X10414000Y-2872000D02*
X10414000Y-2972000D01*
X10364000Y-2922000D02*
X10464000Y-2922000D01*
X10922000Y-2110000D02*
X10922000Y-2210000D01*
X10872000Y-2160000D02*
X10972000Y-2160000D01*
X10922000Y-2364000D02*
X10922000Y-2464000D01*
X10872000Y-2414000D02*
X10972000Y-2414000D01*
X10922000Y-2618000D02*
X10922000Y-2718000D01*
X10872000Y-2668000D02*
X10972000Y-2668000D01*
X10922000Y-2872000D02*
X10922000Y-2972000D01*
X10872000Y-2922000D02*
X10972000Y-2922000D01*
X11430000Y-2110000D02*
X11430000Y-2210000D01*
X11380000Y-2160000D02*
X11480000Y-2160000D01*
X11430000Y-2364000D02*
X11430000Y-2464000D01*
X11380000Y-2414000D02*
X11480000Y-2414000D01*
X11430000Y-2618000D02*
X11430000Y-2718000D01*
X11380000Y-2668000D02*
X11480000Y-2668000D01*
X11430000Y-2872000D02*
X11430000Y-2972000D01*
X11380000Y-2922000D02*
X11480000Y-2922000D01*
X11938000Y-2110000D02*
X11938000Y-2210000D01*
X11888000Y-2160000D02*
X11988000Y-2160000D01*
X11938000Y-2364000D02*
X11938000Y-2464000D01*
X11888000Y-2414000D02*
X11988000Y-2414000D01*
X11938000Y-2618000D02*
X11938000Y-2718000D01*
X11888000Y-2668000D02*
X11988000Y-2668000D01*
X11938000Y-2872000D02*
X11938000Y-2972000D01*
X11888000Y-2922000D02*
X11988000Y-2922000D01*
X12446000Y-2110000D02*
X12446000Y-2210000D01*
X12396000Y-2160000D02*
X12496000Y-2160000D01*
X12446000Y-2364000D02*
X12446000Y-2464000D01*
X12396000Y-2414000D02*
X12496000Y-2414000D01*
X12446000Y-2618000D02*
X12446000Y-2718000D01*
X12396000Y-2668000D02*
X12496000Y-2668000D01*
X12446000Y-2872000D02*
X12446000Y-2972000D01*
X12396000Y-2922000D02*
X12496000Y-2922000D01*
X12954000Y-2110000D02*
X12954000Y-2210000D01*
X12904000Y-2160000D02*
X13004000Y-2160000D01*
X12954000Y-2364000D02*
X12954000Y-2464000D01*
X12904000Y-2414000D02*
X13004000Y-2414000D01*
X12954000Y-2618000D02*
X12954000Y-2718000D01*
X12904000Y-2668000D02*
X13004000Y-2668000D01*
X12954000Y-2872000D02*
X12954000Y-2972000D01*
X12904000Y-2922000D02*
X13004000Y-2922000D01*
D11*
X2030619Y-6665476D02*
X2030619Y-6465476D01*
X2078238Y-6465476D01*
X2106810Y-6475000D01*
X2125857Y-6494048D01*
X2135381Y-6513095D01*
X2144905Y-6551190D01*
X2144905Y-6579762D01*
X2135381Y-6617857D01*
X2125857Y-6636905D01*
X2106810Y-6655952D01*
X2078238Y-6665476D01*
X2030619Y-6665476D01*
X2230619Y-6665476D02*
X2230619Y-6532143D01*
X2230619Y-6570238D02*
X2240143Y-6551190D01*
X2249667Y-6541667D01*
X2268714Y-6532143D01*
X2287762Y-6532143D01*
X2354429Y-6665476D02*
X2354429Y-6532143D01*
X2354429Y-6465476D02*
X2344905Y-6475000D01*
X2354429Y-6484524D01*
X2363952Y-6475000D01*
X2354429Y-6465476D01*
X2354429Y-6484524D01*
X2478238Y-6665476D02*
X2459190Y-6655952D01*
X2449667Y-6636905D01*
X2449667Y-6465476D01*
X2583000Y-6665476D02*
X2563952Y-6655952D01*
X2554429Y-6636905D01*
X2554429Y-6465476D01*
X2811571Y-6665476D02*
X2811571Y-6465476D01*
X2878238Y-6608333D01*
X2944905Y-6465476D01*
X2944905Y-6665476D01*
X3125857Y-6665476D02*
X3125857Y-6560714D01*
X3116333Y-6541667D01*
X3097286Y-6532143D01*
X3059190Y-6532143D01*
X3040143Y-6541667D01*
X3125857Y-6655952D02*
X3106809Y-6665476D01*
X3059190Y-6665476D01*
X3040143Y-6655952D01*
X3030619Y-6636905D01*
X3030619Y-6617857D01*
X3040143Y-6598809D01*
X3059190Y-6589286D01*
X3106809Y-6589286D01*
X3125857Y-6579762D01*
X3221095Y-6532143D02*
X3221095Y-6732143D01*
X3221095Y-6541667D02*
X3240143Y-6532143D01*
X3278238Y-6532143D01*
X3297286Y-6541667D01*
X3306809Y-6551190D01*
X3316333Y-6570238D01*
X3316333Y-6627381D01*
X3306809Y-6646428D01*
X3297286Y-6655952D01*
X3278238Y-6665476D01*
X3240143Y-6665476D01*
X3221095Y-6655952D01*
X3402048Y-6646428D02*
X3411571Y-6655952D01*
X3402048Y-6665476D01*
X3392524Y-6655952D01*
X3402048Y-6646428D01*
X3402048Y-6665476D01*
X3402048Y-6541667D02*
X3411571Y-6551190D01*
X3402048Y-6560714D01*
X3392524Y-6551190D01*
X3402048Y-6541667D01*
X3402048Y-6560714D01*
D12*
X1733000Y-6975000D02*
X1773000Y-7015000D01*
X1773000Y-6975000D02*
X1733000Y-7015000D01*
D11*
X2068714Y-6885476D02*
X2087762Y-6885476D01*
X2106810Y-6895000D01*
X2116333Y-6904524D01*
X2125857Y-6923571D01*
X2135381Y-6961667D01*
X2135381Y-7009286D01*
X2125857Y-7047381D01*
X2116333Y-7066428D01*
X2106810Y-7075952D01*
X2087762Y-7085476D01*
X2068714Y-7085476D01*
X2049667Y-7075952D01*
X2040143Y-7066428D01*
X2030619Y-7047381D01*
X2021095Y-7009286D01*
X2021095Y-6961667D01*
X2030619Y-6923571D01*
X2040143Y-6904524D01*
X2049667Y-6895000D01*
X2068714Y-6885476D01*
X2221095Y-7066428D02*
X2230619Y-7075952D01*
X2221095Y-7085476D01*
X2211571Y-7075952D01*
X2221095Y-7066428D01*
X2221095Y-7085476D01*
X2402048Y-6952143D02*
X2402048Y-7085476D01*
X2354429Y-6875952D02*
X2306810Y-7018809D01*
X2430619Y-7018809D01*
X2544905Y-6885476D02*
X2563952Y-6885476D01*
X2583000Y-6895000D01*
X2592524Y-6904524D01*
X2602048Y-6923571D01*
X2611571Y-6961667D01*
X2611571Y-7009286D01*
X2602048Y-7047381D01*
X2592524Y-7066428D01*
X2583000Y-7075952D01*
X2563952Y-7085476D01*
X2544905Y-7085476D01*
X2525857Y-7075952D01*
X2516333Y-7066428D01*
X2506810Y-7047381D01*
X2497286Y-7009286D01*
X2497286Y-6961667D01*
X2506810Y-6923571D01*
X2516333Y-6904524D01*
X2525857Y-6895000D01*
X2544905Y-6885476D01*
X2735381Y-6885476D02*
X2754429Y-6885476D01*
X2773476Y-6895000D01*
X2783000Y-6904524D01*
X2792524Y-6923571D01*
X2802048Y-6961667D01*
X2802048Y-7009286D01*
X2792524Y-7047381D01*
X2783000Y-7066428D01*
X2773476Y-7075952D01*
X2754429Y-7085476D01*
X2735381Y-7085476D01*
X2716333Y-7075952D01*
X2706810Y-7066428D01*
X2697286Y-7047381D01*
X2687762Y-7009286D01*
X2687762Y-6961667D01*
X2697286Y-6923571D01*
X2706810Y-6904524D01*
X2716333Y-6895000D01*
X2735381Y-6885476D01*
X2887762Y-7085476D02*
X2887762Y-6952143D01*
X2887762Y-6971190D02*
X2897286Y-6961667D01*
X2916333Y-6952143D01*
X2944905Y-6952143D01*
X2963952Y-6961667D01*
X2973476Y-6980714D01*
X2973476Y-7085476D01*
X2973476Y-6980714D02*
X2983000Y-6961667D01*
X3002048Y-6952143D01*
X3030619Y-6952143D01*
X3049667Y-6961667D01*
X3059190Y-6980714D01*
X3059190Y-7085476D01*
X3154428Y-7085476D02*
X3154428Y-6952143D01*
X3154428Y-6971190D02*
X3163952Y-6961667D01*
X3183000Y-6952143D01*
X3211571Y-6952143D01*
X3230619Y-6961667D01*
X3240143Y-6980714D01*
X3240143Y-7085476D01*
X3240143Y-6980714D02*
X3249667Y-6961667D01*
X3268714Y-6952143D01*
X3297286Y-6952143D01*
X3316333Y-6961667D01*
X3325857Y-6980714D01*
X3325857Y-7085476D01*
X3716333Y-6875952D02*
X3544905Y-7133095D01*
X3973476Y-6885476D02*
X3992524Y-6885476D01*
X4011571Y-6895000D01*
X4021095Y-6904524D01*
X4030619Y-6923571D01*
X4040143Y-6961667D01*
X4040143Y-7009286D01*
X4030619Y-7047381D01*
X4021095Y-7066428D01*
X4011571Y-7075952D01*
X3992524Y-7085476D01*
X3973476Y-7085476D01*
X3954428Y-7075952D01*
X3944905Y-7066428D01*
X3935381Y-7047381D01*
X3925857Y-7009286D01*
X3925857Y-6961667D01*
X3935381Y-6923571D01*
X3944905Y-6904524D01*
X3954428Y-6895000D01*
X3973476Y-6885476D01*
X4125857Y-7066428D02*
X4135381Y-7075952D01*
X4125857Y-7085476D01*
X4116333Y-7075952D01*
X4125857Y-7066428D01*
X4125857Y-7085476D01*
X4259190Y-6885476D02*
X4278238Y-6885476D01*
X4297286Y-6895000D01*
X4306810Y-6904524D01*
X4316333Y-6923571D01*
X4325857Y-6961667D01*
X4325857Y-7009286D01*
X4316333Y-7047381D01*
X4306810Y-7066428D01*
X4297286Y-7075952D01*
X4278238Y-7085476D01*
X4259190Y-7085476D01*
X4240143Y-7075952D01*
X4230619Y-7066428D01*
X4221095Y-7047381D01*
X4211571Y-7009286D01*
X4211571Y-6961667D01*
X4221095Y-6923571D01*
X4230619Y-6904524D01*
X4240143Y-6895000D01*
X4259190Y-6885476D01*
X4516333Y-7085476D02*
X4402048Y-7085476D01*
X4459190Y-7085476D02*
X4459190Y-6885476D01*
X4440143Y-6914048D01*
X4421095Y-6933095D01*
X4402048Y-6942619D01*
X4697286Y-6885476D02*
X4602048Y-6885476D01*
X4592524Y-6980714D01*
X4602048Y-6971190D01*
X4621095Y-6961667D01*
X4668714Y-6961667D01*
X4687762Y-6971190D01*
X4697286Y-6980714D01*
X4706810Y-6999762D01*
X4706810Y-7047381D01*
X4697286Y-7066428D01*
X4687762Y-7075952D01*
X4668714Y-7085476D01*
X4621095Y-7085476D01*
X4602048Y-7075952D01*
X4592524Y-7066428D01*
X4773476Y-6885476D02*
X4906810Y-6885476D01*
X4821095Y-7085476D01*
X4973476Y-6885476D02*
X4973476Y-6923571D01*
X5049667Y-6885476D02*
X5049667Y-6923571D01*
X5344905Y-7161667D02*
X5335381Y-7152143D01*
X5316333Y-7123571D01*
X5306810Y-7104524D01*
X5297286Y-7075952D01*
X5287762Y-7028333D01*
X5287762Y-6990238D01*
X5297286Y-6942619D01*
X5306810Y-6914048D01*
X5316333Y-6895000D01*
X5335381Y-6866428D01*
X5344905Y-6856905D01*
X5411571Y-6904524D02*
X5421095Y-6895000D01*
X5440143Y-6885476D01*
X5487762Y-6885476D01*
X5506810Y-6895000D01*
X5516333Y-6904524D01*
X5525857Y-6923571D01*
X5525857Y-6942619D01*
X5516333Y-6971190D01*
X5402048Y-7085476D01*
X5525857Y-7085476D01*
X5697286Y-6885476D02*
X5659190Y-6885476D01*
X5640143Y-6895000D01*
X5630619Y-6904524D01*
X5611571Y-6933095D01*
X5602048Y-6971190D01*
X5602048Y-7047381D01*
X5611571Y-7066428D01*
X5621095Y-7075952D01*
X5640143Y-7085476D01*
X5678238Y-7085476D01*
X5697286Y-7075952D01*
X5706809Y-7066428D01*
X5716333Y-7047381D01*
X5716333Y-6999762D01*
X5706809Y-6980714D01*
X5697286Y-6971190D01*
X5678238Y-6961667D01*
X5640143Y-6961667D01*
X5621095Y-6971190D01*
X5611571Y-6980714D01*
X5602048Y-6999762D01*
X5954428Y-7085476D02*
X5954428Y-6885476D01*
X6040143Y-7085476D02*
X6040143Y-6980714D01*
X6030619Y-6961667D01*
X6011571Y-6952143D01*
X5983000Y-6952143D01*
X5963952Y-6961667D01*
X5954428Y-6971190D01*
X6163952Y-7085476D02*
X6144905Y-7075952D01*
X6135381Y-7066428D01*
X6125857Y-7047381D01*
X6125857Y-6990238D01*
X6135381Y-6971190D01*
X6144905Y-6961667D01*
X6163952Y-6952143D01*
X6192524Y-6952143D01*
X6211571Y-6961667D01*
X6221095Y-6971190D01*
X6230619Y-6990238D01*
X6230619Y-7047381D01*
X6221095Y-7066428D01*
X6211571Y-7075952D01*
X6192524Y-7085476D01*
X6163952Y-7085476D01*
X6344905Y-7085476D02*
X6325857Y-7075952D01*
X6316333Y-7056905D01*
X6316333Y-6885476D01*
X6497286Y-7075952D02*
X6478238Y-7085476D01*
X6440143Y-7085476D01*
X6421095Y-7075952D01*
X6411571Y-7056905D01*
X6411571Y-6980714D01*
X6421095Y-6961667D01*
X6440143Y-6952143D01*
X6478238Y-6952143D01*
X6497286Y-6961667D01*
X6506809Y-6980714D01*
X6506809Y-6999762D01*
X6411571Y-7018809D01*
X6583000Y-7075952D02*
X6602048Y-7085476D01*
X6640143Y-7085476D01*
X6659190Y-7075952D01*
X6668714Y-7056905D01*
X6668714Y-7047381D01*
X6659190Y-7028333D01*
X6640143Y-7018809D01*
X6611571Y-7018809D01*
X6592524Y-7009286D01*
X6583000Y-6990238D01*
X6583000Y-6980714D01*
X6592524Y-6961667D01*
X6611571Y-6952143D01*
X6640143Y-6952143D01*
X6659190Y-6961667D01*
X6735381Y-7161667D02*
X6744905Y-7152143D01*
X6763952Y-7123571D01*
X6773476Y-7104524D01*
X6783000Y-7075952D01*
X6792524Y-7028333D01*
X6792524Y-6990238D01*
X6783000Y-6942619D01*
X6773476Y-6914048D01*
X6763952Y-6895000D01*
X6744905Y-6866428D01*
X6735381Y-6856905D01*
D13*
X1773000Y-7259000D02*
G75*
G03*
X1773000Y-7259000I-40000J0D01*
G01*
D11*
X2068714Y-7149476D02*
X2087762Y-7149476D01*
X2106810Y-7159000D01*
X2116333Y-7168524D01*
X2125857Y-7187571D01*
X2135381Y-7225667D01*
X2135381Y-7273286D01*
X2125857Y-7311381D01*
X2116333Y-7330428D01*
X2106810Y-7339952D01*
X2087762Y-7349476D01*
X2068714Y-7349476D01*
X2049667Y-7339952D01*
X2040143Y-7330428D01*
X2030619Y-7311381D01*
X2021095Y-7273286D01*
X2021095Y-7225667D01*
X2030619Y-7187571D01*
X2040143Y-7168524D01*
X2049667Y-7159000D01*
X2068714Y-7149476D01*
X2221095Y-7330428D02*
X2230619Y-7339952D01*
X2221095Y-7349476D01*
X2211571Y-7339952D01*
X2221095Y-7330428D01*
X2221095Y-7349476D01*
X2344905Y-7235190D02*
X2325857Y-7225667D01*
X2316333Y-7216143D01*
X2306810Y-7197095D01*
X2306810Y-7187571D01*
X2316333Y-7168524D01*
X2325857Y-7159000D01*
X2344905Y-7149476D01*
X2383000Y-7149476D01*
X2402048Y-7159000D01*
X2411571Y-7168524D01*
X2421095Y-7187571D01*
X2421095Y-7197095D01*
X2411571Y-7216143D01*
X2402048Y-7225667D01*
X2383000Y-7235190D01*
X2344905Y-7235190D01*
X2325857Y-7244714D01*
X2316333Y-7254238D01*
X2306810Y-7273286D01*
X2306810Y-7311381D01*
X2316333Y-7330428D01*
X2325857Y-7339952D01*
X2344905Y-7349476D01*
X2383000Y-7349476D01*
X2402048Y-7339952D01*
X2411571Y-7330428D01*
X2421095Y-7311381D01*
X2421095Y-7273286D01*
X2411571Y-7254238D01*
X2402048Y-7244714D01*
X2383000Y-7235190D01*
X2544905Y-7149476D02*
X2563952Y-7149476D01*
X2583000Y-7159000D01*
X2592524Y-7168524D01*
X2602048Y-7187571D01*
X2611571Y-7225667D01*
X2611571Y-7273286D01*
X2602048Y-7311381D01*
X2592524Y-7330428D01*
X2583000Y-7339952D01*
X2563952Y-7349476D01*
X2544905Y-7349476D01*
X2525857Y-7339952D01*
X2516333Y-7330428D01*
X2506810Y-7311381D01*
X2497286Y-7273286D01*
X2497286Y-7225667D01*
X2506810Y-7187571D01*
X2516333Y-7168524D01*
X2525857Y-7159000D01*
X2544905Y-7149476D01*
X2735381Y-7149476D02*
X2754429Y-7149476D01*
X2773476Y-7159000D01*
X2783000Y-7168524D01*
X2792524Y-7187571D01*
X2802048Y-7225667D01*
X2802048Y-7273286D01*
X2792524Y-7311381D01*
X2783000Y-7330428D01*
X2773476Y-7339952D01*
X2754429Y-7349476D01*
X2735381Y-7349476D01*
X2716333Y-7339952D01*
X2706810Y-7330428D01*
X2697286Y-7311381D01*
X2687762Y-7273286D01*
X2687762Y-7225667D01*
X2697286Y-7187571D01*
X2706810Y-7168524D01*
X2716333Y-7159000D01*
X2735381Y-7149476D01*
X2887762Y-7349476D02*
X2887762Y-7216143D01*
X2887762Y-7235190D02*
X2897286Y-7225667D01*
X2916333Y-7216143D01*
X2944905Y-7216143D01*
X2963952Y-7225667D01*
X2973476Y-7244714D01*
X2973476Y-7349476D01*
X2973476Y-7244714D02*
X2983000Y-7225667D01*
X3002048Y-7216143D01*
X3030619Y-7216143D01*
X3049667Y-7225667D01*
X3059190Y-7244714D01*
X3059190Y-7349476D01*
X3154428Y-7349476D02*
X3154428Y-7216143D01*
X3154428Y-7235190D02*
X3163952Y-7225667D01*
X3183000Y-7216143D01*
X3211571Y-7216143D01*
X3230619Y-7225667D01*
X3240143Y-7244714D01*
X3240143Y-7349476D01*
X3240143Y-7244714D02*
X3249667Y-7225667D01*
X3268714Y-7216143D01*
X3297286Y-7216143D01*
X3316333Y-7225667D01*
X3325857Y-7244714D01*
X3325857Y-7349476D01*
X3716333Y-7139952D02*
X3544905Y-7397095D01*
X3973476Y-7149476D02*
X3992524Y-7149476D01*
X4011571Y-7159000D01*
X4021095Y-7168524D01*
X4030619Y-7187571D01*
X4040143Y-7225667D01*
X4040143Y-7273286D01*
X4030619Y-7311381D01*
X4021095Y-7330428D01*
X4011571Y-7339952D01*
X3992524Y-7349476D01*
X3973476Y-7349476D01*
X3954428Y-7339952D01*
X3944905Y-7330428D01*
X3935381Y-7311381D01*
X3925857Y-7273286D01*
X3925857Y-7225667D01*
X3935381Y-7187571D01*
X3944905Y-7168524D01*
X3954428Y-7159000D01*
X3973476Y-7149476D01*
X4125857Y-7330428D02*
X4135381Y-7339952D01*
X4125857Y-7349476D01*
X4116333Y-7339952D01*
X4125857Y-7330428D01*
X4125857Y-7349476D01*
X4259190Y-7149476D02*
X4278238Y-7149476D01*
X4297286Y-7159000D01*
X4306810Y-7168524D01*
X4316333Y-7187571D01*
X4325857Y-7225667D01*
X4325857Y-7273286D01*
X4316333Y-7311381D01*
X4306810Y-7330428D01*
X4297286Y-7339952D01*
X4278238Y-7349476D01*
X4259190Y-7349476D01*
X4240143Y-7339952D01*
X4230619Y-7330428D01*
X4221095Y-7311381D01*
X4211571Y-7273286D01*
X4211571Y-7225667D01*
X4221095Y-7187571D01*
X4230619Y-7168524D01*
X4240143Y-7159000D01*
X4259190Y-7149476D01*
X4392524Y-7149476D02*
X4516333Y-7149476D01*
X4449667Y-7225667D01*
X4478238Y-7225667D01*
X4497286Y-7235190D01*
X4506810Y-7244714D01*
X4516333Y-7263762D01*
X4516333Y-7311381D01*
X4506810Y-7330428D01*
X4497286Y-7339952D01*
X4478238Y-7349476D01*
X4421095Y-7349476D01*
X4402048Y-7339952D01*
X4392524Y-7330428D01*
X4706810Y-7349476D02*
X4592524Y-7349476D01*
X4649667Y-7349476D02*
X4649667Y-7149476D01*
X4630619Y-7178048D01*
X4611571Y-7197095D01*
X4592524Y-7206619D01*
X4887762Y-7149476D02*
X4792524Y-7149476D01*
X4783000Y-7244714D01*
X4792524Y-7235190D01*
X4811571Y-7225667D01*
X4859190Y-7225667D01*
X4878238Y-7235190D01*
X4887762Y-7244714D01*
X4897286Y-7263762D01*
X4897286Y-7311381D01*
X4887762Y-7330428D01*
X4878238Y-7339952D01*
X4859190Y-7349476D01*
X4811571Y-7349476D01*
X4792524Y-7339952D01*
X4783000Y-7330428D01*
X4973476Y-7149476D02*
X4973476Y-7187571D01*
X5049667Y-7149476D02*
X5049667Y-7187571D01*
X5344905Y-7425667D02*
X5335381Y-7416143D01*
X5316333Y-7387571D01*
X5306810Y-7368524D01*
X5297286Y-7339952D01*
X5287762Y-7292333D01*
X5287762Y-7254238D01*
X5297286Y-7206619D01*
X5306810Y-7178048D01*
X5316333Y-7159000D01*
X5335381Y-7130428D01*
X5344905Y-7120905D01*
X5430619Y-7349476D02*
X5468714Y-7349476D01*
X5487762Y-7339952D01*
X5497286Y-7330428D01*
X5516333Y-7301857D01*
X5525857Y-7263762D01*
X5525857Y-7187571D01*
X5516333Y-7168524D01*
X5506810Y-7159000D01*
X5487762Y-7149476D01*
X5449667Y-7149476D01*
X5430619Y-7159000D01*
X5421095Y-7168524D01*
X5411571Y-7187571D01*
X5411571Y-7235190D01*
X5421095Y-7254238D01*
X5430619Y-7263762D01*
X5449667Y-7273286D01*
X5487762Y-7273286D01*
X5506810Y-7263762D01*
X5516333Y-7254238D01*
X5525857Y-7235190D01*
X5649667Y-7149476D02*
X5668714Y-7149476D01*
X5687762Y-7159000D01*
X5697286Y-7168524D01*
X5706809Y-7187571D01*
X5716333Y-7225667D01*
X5716333Y-7273286D01*
X5706809Y-7311381D01*
X5697286Y-7330428D01*
X5687762Y-7339952D01*
X5668714Y-7349476D01*
X5649667Y-7349476D01*
X5630619Y-7339952D01*
X5621095Y-7330428D01*
X5611571Y-7311381D01*
X5602048Y-7273286D01*
X5602048Y-7225667D01*
X5611571Y-7187571D01*
X5621095Y-7168524D01*
X5630619Y-7159000D01*
X5649667Y-7149476D01*
X5954428Y-7349476D02*
X5954428Y-7149476D01*
X6040143Y-7349476D02*
X6040143Y-7244714D01*
X6030619Y-7225667D01*
X6011571Y-7216143D01*
X5983000Y-7216143D01*
X5963952Y-7225667D01*
X5954428Y-7235190D01*
X6163952Y-7349476D02*
X6144905Y-7339952D01*
X6135381Y-7330428D01*
X6125857Y-7311381D01*
X6125857Y-7254238D01*
X6135381Y-7235190D01*
X6144905Y-7225667D01*
X6163952Y-7216143D01*
X6192524Y-7216143D01*
X6211571Y-7225667D01*
X6221095Y-7235190D01*
X6230619Y-7254238D01*
X6230619Y-7311381D01*
X6221095Y-7330428D01*
X6211571Y-7339952D01*
X6192524Y-7349476D01*
X6163952Y-7349476D01*
X6344905Y-7349476D02*
X6325857Y-7339952D01*
X6316333Y-7320905D01*
X6316333Y-7149476D01*
X6497286Y-7339952D02*
X6478238Y-7349476D01*
X6440143Y-7349476D01*
X6421095Y-7339952D01*
X6411571Y-7320905D01*
X6411571Y-7244714D01*
X6421095Y-7225667D01*
X6440143Y-7216143D01*
X6478238Y-7216143D01*
X6497286Y-7225667D01*
X6506809Y-7244714D01*
X6506809Y-7263762D01*
X6411571Y-7282809D01*
X6583000Y-7339952D02*
X6602048Y-7349476D01*
X6640143Y-7349476D01*
X6659190Y-7339952D01*
X6668714Y-7320905D01*
X6668714Y-7311381D01*
X6659190Y-7292333D01*
X6640143Y-7282809D01*
X6611571Y-7282809D01*
X6592524Y-7273286D01*
X6583000Y-7254238D01*
X6583000Y-7244714D01*
X6592524Y-7225667D01*
X6611571Y-7216143D01*
X6640143Y-7216143D01*
X6659190Y-7225667D01*
X6735381Y-7425667D02*
X6744905Y-7416143D01*
X6763952Y-7387571D01*
X6773476Y-7368524D01*
X6783000Y-7339952D01*
X6792524Y-7292333D01*
X6792524Y-7254238D01*
X6783000Y-7206619D01*
X6773476Y-7178048D01*
X6763952Y-7159000D01*
X6744905Y-7130428D01*
X6735381Y-7120905D01*
D14*
X1723000Y-7473000D02*
X1723000Y-7573000D01*
X1673000Y-7523000D02*
X1773000Y-7523000D01*
D11*
X2135381Y-7613476D02*
X2021095Y-7613476D01*
X2078238Y-7613476D02*
X2078238Y-7413476D01*
X2059190Y-7442048D01*
X2040143Y-7461095D01*
X2021095Y-7470619D01*
X2221095Y-7594428D02*
X2230619Y-7603952D01*
X2221095Y-7613476D01*
X2211571Y-7603952D01*
X2221095Y-7594428D01*
X2221095Y-7613476D01*
X2354429Y-7413476D02*
X2373476Y-7413476D01*
X2392524Y-7423000D01*
X2402048Y-7432524D01*
X2411571Y-7451571D01*
X2421095Y-7489667D01*
X2421095Y-7537286D01*
X2411571Y-7575381D01*
X2402048Y-7594428D01*
X2392524Y-7603952D01*
X2373476Y-7613476D01*
X2354429Y-7613476D01*
X2335381Y-7603952D01*
X2325857Y-7594428D01*
X2316333Y-7575381D01*
X2306810Y-7537286D01*
X2306810Y-7489667D01*
X2316333Y-7451571D01*
X2325857Y-7432524D01*
X2335381Y-7423000D01*
X2354429Y-7413476D01*
X2544905Y-7413476D02*
X2563952Y-7413476D01*
X2583000Y-7423000D01*
X2592524Y-7432524D01*
X2602048Y-7451571D01*
X2611571Y-7489667D01*
X2611571Y-7537286D01*
X2602048Y-7575381D01*
X2592524Y-7594428D01*
X2583000Y-7603952D01*
X2563952Y-7613476D01*
X2544905Y-7613476D01*
X2525857Y-7603952D01*
X2516333Y-7594428D01*
X2506810Y-7575381D01*
X2497286Y-7537286D01*
X2497286Y-7489667D01*
X2506810Y-7451571D01*
X2516333Y-7432524D01*
X2525857Y-7423000D01*
X2544905Y-7413476D01*
X2735381Y-7413476D02*
X2754429Y-7413476D01*
X2773476Y-7423000D01*
X2783000Y-7432524D01*
X2792524Y-7451571D01*
X2802048Y-7489667D01*
X2802048Y-7537286D01*
X2792524Y-7575381D01*
X2783000Y-7594428D01*
X2773476Y-7603952D01*
X2754429Y-7613476D01*
X2735381Y-7613476D01*
X2716333Y-7603952D01*
X2706810Y-7594428D01*
X2697286Y-7575381D01*
X2687762Y-7537286D01*
X2687762Y-7489667D01*
X2697286Y-7451571D01*
X2706810Y-7432524D01*
X2716333Y-7423000D01*
X2735381Y-7413476D01*
X2887762Y-7613476D02*
X2887762Y-7480143D01*
X2887762Y-7499190D02*
X2897286Y-7489667D01*
X2916333Y-7480143D01*
X2944905Y-7480143D01*
X2963952Y-7489667D01*
X2973476Y-7508714D01*
X2973476Y-7613476D01*
X2973476Y-7508714D02*
X2983000Y-7489667D01*
X3002048Y-7480143D01*
X3030619Y-7480143D01*
X3049667Y-7489667D01*
X3059190Y-7508714D01*
X3059190Y-7613476D01*
X3154428Y-7613476D02*
X3154428Y-7480143D01*
X3154428Y-7499190D02*
X3163952Y-7489667D01*
X3183000Y-7480143D01*
X3211571Y-7480143D01*
X3230619Y-7489667D01*
X3240143Y-7508714D01*
X3240143Y-7613476D01*
X3240143Y-7508714D02*
X3249667Y-7489667D01*
X3268714Y-7480143D01*
X3297286Y-7480143D01*
X3316333Y-7489667D01*
X3325857Y-7508714D01*
X3325857Y-7613476D01*
X3716333Y-7403952D02*
X3544905Y-7661095D01*
X3973476Y-7413476D02*
X3992524Y-7413476D01*
X4011571Y-7423000D01*
X4021095Y-7432524D01*
X4030619Y-7451571D01*
X4040143Y-7489667D01*
X4040143Y-7537286D01*
X4030619Y-7575381D01*
X4021095Y-7594428D01*
X4011571Y-7603952D01*
X3992524Y-7613476D01*
X3973476Y-7613476D01*
X3954428Y-7603952D01*
X3944905Y-7594428D01*
X3935381Y-7575381D01*
X3925857Y-7537286D01*
X3925857Y-7489667D01*
X3935381Y-7451571D01*
X3944905Y-7432524D01*
X3954428Y-7423000D01*
X3973476Y-7413476D01*
X4125857Y-7594428D02*
X4135381Y-7603952D01*
X4125857Y-7613476D01*
X4116333Y-7603952D01*
X4125857Y-7594428D01*
X4125857Y-7613476D01*
X4259190Y-7413476D02*
X4278238Y-7413476D01*
X4297286Y-7423000D01*
X4306810Y-7432524D01*
X4316333Y-7451571D01*
X4325857Y-7489667D01*
X4325857Y-7537286D01*
X4316333Y-7575381D01*
X4306810Y-7594428D01*
X4297286Y-7603952D01*
X4278238Y-7613476D01*
X4259190Y-7613476D01*
X4240143Y-7603952D01*
X4230619Y-7594428D01*
X4221095Y-7575381D01*
X4211571Y-7537286D01*
X4211571Y-7489667D01*
X4221095Y-7451571D01*
X4230619Y-7432524D01*
X4240143Y-7423000D01*
X4259190Y-7413476D01*
X4392524Y-7413476D02*
X4516333Y-7413476D01*
X4449667Y-7489667D01*
X4478238Y-7489667D01*
X4497286Y-7499190D01*
X4506810Y-7508714D01*
X4516333Y-7527762D01*
X4516333Y-7575381D01*
X4506810Y-7594428D01*
X4497286Y-7603952D01*
X4478238Y-7613476D01*
X4421095Y-7613476D01*
X4402048Y-7603952D01*
X4392524Y-7594428D01*
X4611571Y-7613476D02*
X4649667Y-7613476D01*
X4668714Y-7603952D01*
X4678238Y-7594428D01*
X4697286Y-7565857D01*
X4706810Y-7527762D01*
X4706810Y-7451571D01*
X4697286Y-7432524D01*
X4687762Y-7423000D01*
X4668714Y-7413476D01*
X4630619Y-7413476D01*
X4611571Y-7423000D01*
X4602048Y-7432524D01*
X4592524Y-7451571D01*
X4592524Y-7499190D01*
X4602048Y-7518238D01*
X4611571Y-7527762D01*
X4630619Y-7537286D01*
X4668714Y-7537286D01*
X4687762Y-7527762D01*
X4697286Y-7518238D01*
X4706810Y-7499190D01*
X4878238Y-7480143D02*
X4878238Y-7613476D01*
X4830619Y-7403952D02*
X4783000Y-7546809D01*
X4906810Y-7546809D01*
X4973476Y-7413476D02*
X4973476Y-7451571D01*
X5049667Y-7413476D02*
X5049667Y-7451571D01*
X5344905Y-7689667D02*
X5335381Y-7680143D01*
X5316333Y-7651571D01*
X5306810Y-7632524D01*
X5297286Y-7603952D01*
X5287762Y-7556333D01*
X5287762Y-7518238D01*
X5297286Y-7470619D01*
X5306810Y-7442048D01*
X5316333Y-7423000D01*
X5335381Y-7394428D01*
X5344905Y-7384905D01*
X5411571Y-7432524D02*
X5421095Y-7423000D01*
X5440143Y-7413476D01*
X5487762Y-7413476D01*
X5506810Y-7423000D01*
X5516333Y-7432524D01*
X5525857Y-7451571D01*
X5525857Y-7470619D01*
X5516333Y-7499190D01*
X5402048Y-7613476D01*
X5525857Y-7613476D01*
X5697286Y-7480143D02*
X5697286Y-7613476D01*
X5649667Y-7403952D02*
X5602048Y-7546809D01*
X5725857Y-7546809D01*
X5954428Y-7613476D02*
X5954428Y-7413476D01*
X6040143Y-7613476D02*
X6040143Y-7508714D01*
X6030619Y-7489667D01*
X6011571Y-7480143D01*
X5983000Y-7480143D01*
X5963952Y-7489667D01*
X5954428Y-7499190D01*
X6163952Y-7613476D02*
X6144905Y-7603952D01*
X6135381Y-7594428D01*
X6125857Y-7575381D01*
X6125857Y-7518238D01*
X6135381Y-7499190D01*
X6144905Y-7489667D01*
X6163952Y-7480143D01*
X6192524Y-7480143D01*
X6211571Y-7489667D01*
X6221095Y-7499190D01*
X6230619Y-7518238D01*
X6230619Y-7575381D01*
X6221095Y-7594428D01*
X6211571Y-7603952D01*
X6192524Y-7613476D01*
X6163952Y-7613476D01*
X6344905Y-7613476D02*
X6325857Y-7603952D01*
X6316333Y-7584905D01*
X6316333Y-7413476D01*
X6497286Y-7603952D02*
X6478238Y-7613476D01*
X6440143Y-7613476D01*
X6421095Y-7603952D01*
X6411571Y-7584905D01*
X6411571Y-7508714D01*
X6421095Y-7489667D01*
X6440143Y-7480143D01*
X6478238Y-7480143D01*
X6497286Y-7489667D01*
X6506809Y-7508714D01*
X6506809Y-7527762D01*
X6411571Y-7546809D01*
X6583000Y-7603952D02*
X6602048Y-7613476D01*
X6640143Y-7613476D01*
X6659190Y-7603952D01*
X6668714Y-7584905D01*
X6668714Y-7575381D01*
X6659190Y-7556333D01*
X6640143Y-7546809D01*
X6611571Y-7546809D01*
X6592524Y-7537286D01*
X6583000Y-7518238D01*
X6583000Y-7508714D01*
X6592524Y-7489667D01*
X6611571Y-7480143D01*
X6640143Y-7480143D01*
X6659190Y-7489667D01*
X6735381Y-7689667D02*
X6744905Y-7680143D01*
X6763952Y-7651571D01*
X6773476Y-7632524D01*
X6783000Y-7603952D01*
X6792524Y-7556333D01*
X6792524Y-7518238D01*
X6783000Y-7470619D01*
X6773476Y-7442048D01*
X6763952Y-7423000D01*
X6744905Y-7394428D01*
X6735381Y-7384905D01*
M02*
