M48
; DRILL file {KiCad (6.0.0-0)} date Sunday, 24 September 2023 at 20:44:34
; FORMAT={-:-/ absolute / metric / decimal}
; #@! TF.CreationDate,2023-09-24T20:44:34+01:00
; #@! TF.GenerationSoftware,Kicad,Pcbnew,(6.0.0-0)
; #@! TF.FileFunction,Plated,1,2,PTH
FMAT,2
METRIC
; #@! TA.AperFunction,Plated,PTH,ViaDrill
T1C0.400
; #@! TA.AperFunction,Plated,PTH,ComponentDrill
T2C0.800
; #@! TA.AperFunction,Plated,PTH,ComponentDrill
T3C1.000
%
G90
G05
T1
X24.13Y-41.275
X29.21Y-45.085
X30.48Y-48.895
X33.02Y-46.99
X35.56Y-44.45
X36.195Y-32.385
X38.1Y-43.18
X45.085Y-38.735
X61.595Y-20.32
X79.375Y-22.225
X84.455Y-34.925
X84.455Y-45.72
X87.63Y-22.225
X87.63Y-48.26
X87.63Y-50.165
X87.63Y-51.435
X87.63Y-52.705
X89.535Y-41.275
X90.17Y-30.48
X96.52Y-37.465
X96.52Y-50.165
X97.155Y-60.96
X111.125Y-58.42
X118.11Y-55.245
X139.065Y-34.29
X139.065Y-46.99
T2
X20.32Y-27.94
X20.32Y-53.34
X22.86Y-27.94
X22.86Y-53.34
X25.4Y-27.94
X25.4Y-53.34
X27.94Y-20.32
X27.94Y-24.13
X27.94Y-27.94
X27.94Y-53.34
X27.94Y-57.15
X27.94Y-60.96
X30.48Y-27.94
X30.48Y-53.34
X33.02Y-27.94
X33.02Y-53.34
X35.56Y-27.94
X35.56Y-53.34
X38.1Y-20.32
X38.1Y-24.13
X38.1Y-27.94
X38.1Y-53.34
X38.1Y-57.15
X38.1Y-60.96
X40.64Y-27.94
X40.64Y-53.34
X41.91Y-20.32
X41.91Y-24.13
X41.91Y-57.15
X41.91Y-60.96
X43.18Y-27.94
X43.18Y-53.34
X52.07Y-20.32
X52.07Y-24.13
X52.07Y-57.15
X52.07Y-60.96
X55.88Y-20.32
X55.88Y-24.13
X55.88Y-57.15
X55.88Y-60.96
X66.04Y-20.32
X66.04Y-24.13
X66.04Y-57.15
X66.04Y-60.96
X98.425Y-43.815
X98.425Y-48.26
X101.6Y-34.29
X101.6Y-36.83
X101.6Y-39.37
X104.13Y-53.33
X104.13Y-60.95
X106.67Y-53.33
X106.67Y-60.95
X106.68Y-34.29
X106.68Y-36.83
X106.68Y-39.37
X108.585Y-43.815
X108.585Y-48.26
X109.21Y-53.33
X109.21Y-60.95
X111.75Y-53.33
X111.75Y-60.95
X111.76Y-34.29
X111.76Y-36.83
X111.76Y-39.37
X111.76Y-43.815
X111.76Y-48.26
X114.29Y-53.33
X114.29Y-60.95
X116.83Y-53.33
X116.83Y-60.95
X116.84Y-34.29
X116.84Y-36.83
X116.84Y-39.37
X119.37Y-53.33
X119.37Y-60.95
X121.91Y-53.33
X121.91Y-60.95
X121.92Y-34.29
X121.92Y-36.83
X121.92Y-39.37
X121.92Y-43.815
X121.92Y-48.26
X125.095Y-43.815
X125.095Y-48.26
X127.0Y-34.29
X127.0Y-36.83
X127.0Y-39.37
X135.255Y-43.815
X135.255Y-48.26
T3
X104.14Y-21.6
X104.14Y-24.14
X104.14Y-26.68
X104.14Y-29.22
X109.22Y-21.6
X109.22Y-24.14
X109.22Y-26.68
X109.22Y-29.22
X114.3Y-21.6
X114.3Y-24.14
X114.3Y-26.68
X114.3Y-29.22
X119.38Y-21.6
X119.38Y-24.14
X119.38Y-26.68
X119.38Y-29.22
X124.46Y-21.6
X124.46Y-24.14
X124.46Y-26.68
X124.46Y-29.22
X129.54Y-21.6
X129.54Y-24.14
X129.54Y-26.68
X129.54Y-29.22
T0
M30
