%FSLAX45Y45*%
G04 Gerber Fmt 4.5, Leading zero omitted, Abs format (unit mm)*
G04 Created by KiCad (PCBNEW (6.0.0-0)) date 2023-09-24 20:44:43*
%MOMM*%
%LPD*%
G01*
G04 APERTURE LIST*
%TA.AperFunction,Profile*%
%ADD10C,0.100000*%
%TD*%
%ADD11C,0.200000*%
%ADD12C,0.320000*%
G04 APERTURE END LIST*
D10*
X8255000Y-2921000D02*
X4953000Y-2921000D01*
X4953000Y-2921000D02*
X4953000Y-5207000D01*
X4953000Y-5207000D02*
X8255000Y-5207000D01*
X8255000Y-5207000D02*
X8255000Y-2921000D01*
X1778000Y-1778000D02*
X14224000Y-1778000D01*
X14224000Y-1778000D02*
X14224000Y-6350000D01*
X14224000Y-6350000D02*
X1778000Y-6350000D01*
X1778000Y-6350000D02*
X1778000Y-1778000D01*
D11*
D12*
X2126000Y-2126000D02*
X2446000Y-2446000D01*
X2446000Y-2126000D02*
X2126000Y-2446000D01*
X2126000Y-5682000D02*
X2446000Y-6002000D01*
X2446000Y-5682000D02*
X2126000Y-6002000D01*
X13556000Y-2126000D02*
X13876000Y-2446000D01*
X13876000Y-2126000D02*
X13556000Y-2446000D01*
X13556000Y-5682000D02*
X13876000Y-6002000D01*
X13876000Y-5682000D02*
X13556000Y-6002000D01*
D11*
X2030619Y-6665476D02*
X2030619Y-6465476D01*
X2078238Y-6465476D01*
X2106810Y-6475000D01*
X2125857Y-6494048D01*
X2135381Y-6513095D01*
X2144905Y-6551190D01*
X2144905Y-6579762D01*
X2135381Y-6617857D01*
X2125857Y-6636905D01*
X2106810Y-6655952D01*
X2078238Y-6665476D01*
X2030619Y-6665476D01*
X2230619Y-6665476D02*
X2230619Y-6532143D01*
X2230619Y-6570238D02*
X2240143Y-6551190D01*
X2249667Y-6541667D01*
X2268714Y-6532143D01*
X2287762Y-6532143D01*
X2354429Y-6665476D02*
X2354429Y-6532143D01*
X2354429Y-6465476D02*
X2344905Y-6475000D01*
X2354429Y-6484524D01*
X2363952Y-6475000D01*
X2354429Y-6465476D01*
X2354429Y-6484524D01*
X2478238Y-6665476D02*
X2459190Y-6655952D01*
X2449667Y-6636905D01*
X2449667Y-6465476D01*
X2583000Y-6665476D02*
X2563952Y-6655952D01*
X2554429Y-6636905D01*
X2554429Y-6465476D01*
X2811571Y-6665476D02*
X2811571Y-6465476D01*
X2878238Y-6608333D01*
X2944905Y-6465476D01*
X2944905Y-6665476D01*
X3125857Y-6665476D02*
X3125857Y-6560714D01*
X3116333Y-6541667D01*
X3097286Y-6532143D01*
X3059190Y-6532143D01*
X3040143Y-6541667D01*
X3125857Y-6655952D02*
X3106809Y-6665476D01*
X3059190Y-6665476D01*
X3040143Y-6655952D01*
X3030619Y-6636905D01*
X3030619Y-6617857D01*
X3040143Y-6598809D01*
X3059190Y-6589286D01*
X3106809Y-6589286D01*
X3125857Y-6579762D01*
X3221095Y-6532143D02*
X3221095Y-6732143D01*
X3221095Y-6541667D02*
X3240143Y-6532143D01*
X3278238Y-6532143D01*
X3297286Y-6541667D01*
X3306809Y-6551190D01*
X3316333Y-6570238D01*
X3316333Y-6627381D01*
X3306809Y-6646428D01*
X3297286Y-6655952D01*
X3278238Y-6665476D01*
X3240143Y-6665476D01*
X3221095Y-6655952D01*
X3402048Y-6646428D02*
X3411571Y-6655952D01*
X3402048Y-6665476D01*
X3392524Y-6655952D01*
X3402048Y-6646428D01*
X3402048Y-6665476D01*
X3402048Y-6541667D02*
X3411571Y-6551190D01*
X3402048Y-6560714D01*
X3392524Y-6551190D01*
X3402048Y-6541667D01*
X3402048Y-6560714D01*
X1573000Y-6895000D02*
X1773000Y-7095000D01*
X1773000Y-6895000D02*
X1573000Y-7095000D01*
X2011571Y-6885476D02*
X2135381Y-6885476D01*
X2068714Y-6961667D01*
X2097286Y-6961667D01*
X2116333Y-6971190D01*
X2125857Y-6980714D01*
X2135381Y-6999762D01*
X2135381Y-7047381D01*
X2125857Y-7066428D01*
X2116333Y-7075952D01*
X2097286Y-7085476D01*
X2040143Y-7085476D01*
X2021095Y-7075952D01*
X2011571Y-7066428D01*
X2221095Y-7066428D02*
X2230619Y-7075952D01*
X2221095Y-7085476D01*
X2211571Y-7075952D01*
X2221095Y-7066428D01*
X2221095Y-7085476D01*
X2306810Y-6904524D02*
X2316333Y-6895000D01*
X2335381Y-6885476D01*
X2383000Y-6885476D01*
X2402048Y-6895000D01*
X2411571Y-6904524D01*
X2421095Y-6923571D01*
X2421095Y-6942619D01*
X2411571Y-6971190D01*
X2297286Y-7085476D01*
X2421095Y-7085476D01*
X2544905Y-6885476D02*
X2563952Y-6885476D01*
X2583000Y-6895000D01*
X2592524Y-6904524D01*
X2602048Y-6923571D01*
X2611571Y-6961667D01*
X2611571Y-7009286D01*
X2602048Y-7047381D01*
X2592524Y-7066428D01*
X2583000Y-7075952D01*
X2563952Y-7085476D01*
X2544905Y-7085476D01*
X2525857Y-7075952D01*
X2516333Y-7066428D01*
X2506810Y-7047381D01*
X2497286Y-7009286D01*
X2497286Y-6961667D01*
X2506810Y-6923571D01*
X2516333Y-6904524D01*
X2525857Y-6895000D01*
X2544905Y-6885476D01*
X2735381Y-6885476D02*
X2754429Y-6885476D01*
X2773476Y-6895000D01*
X2783000Y-6904524D01*
X2792524Y-6923571D01*
X2802048Y-6961667D01*
X2802048Y-7009286D01*
X2792524Y-7047381D01*
X2783000Y-7066428D01*
X2773476Y-7075952D01*
X2754429Y-7085476D01*
X2735381Y-7085476D01*
X2716333Y-7075952D01*
X2706810Y-7066428D01*
X2697286Y-7047381D01*
X2687762Y-7009286D01*
X2687762Y-6961667D01*
X2697286Y-6923571D01*
X2706810Y-6904524D01*
X2716333Y-6895000D01*
X2735381Y-6885476D01*
X2887762Y-7085476D02*
X2887762Y-6952143D01*
X2887762Y-6971190D02*
X2897286Y-6961667D01*
X2916333Y-6952143D01*
X2944905Y-6952143D01*
X2963952Y-6961667D01*
X2973476Y-6980714D01*
X2973476Y-7085476D01*
X2973476Y-6980714D02*
X2983000Y-6961667D01*
X3002048Y-6952143D01*
X3030619Y-6952143D01*
X3049667Y-6961667D01*
X3059190Y-6980714D01*
X3059190Y-7085476D01*
X3154428Y-7085476D02*
X3154428Y-6952143D01*
X3154428Y-6971190D02*
X3163952Y-6961667D01*
X3183000Y-6952143D01*
X3211571Y-6952143D01*
X3230619Y-6961667D01*
X3240143Y-6980714D01*
X3240143Y-7085476D01*
X3240143Y-6980714D02*
X3249667Y-6961667D01*
X3268714Y-6952143D01*
X3297286Y-6952143D01*
X3316333Y-6961667D01*
X3325857Y-6980714D01*
X3325857Y-7085476D01*
X3716333Y-6875952D02*
X3544905Y-7133095D01*
X3973476Y-6885476D02*
X3992524Y-6885476D01*
X4011571Y-6895000D01*
X4021095Y-6904524D01*
X4030619Y-6923571D01*
X4040143Y-6961667D01*
X4040143Y-7009286D01*
X4030619Y-7047381D01*
X4021095Y-7066428D01*
X4011571Y-7075952D01*
X3992524Y-7085476D01*
X3973476Y-7085476D01*
X3954428Y-7075952D01*
X3944905Y-7066428D01*
X3935381Y-7047381D01*
X3925857Y-7009286D01*
X3925857Y-6961667D01*
X3935381Y-6923571D01*
X3944905Y-6904524D01*
X3954428Y-6895000D01*
X3973476Y-6885476D01*
X4125857Y-7066428D02*
X4135381Y-7075952D01*
X4125857Y-7085476D01*
X4116333Y-7075952D01*
X4125857Y-7066428D01*
X4125857Y-7085476D01*
X4325857Y-7085476D02*
X4211571Y-7085476D01*
X4268714Y-7085476D02*
X4268714Y-6885476D01*
X4249667Y-6914048D01*
X4230619Y-6933095D01*
X4211571Y-6942619D01*
X4402048Y-6904524D02*
X4411571Y-6895000D01*
X4430619Y-6885476D01*
X4478238Y-6885476D01*
X4497286Y-6895000D01*
X4506810Y-6904524D01*
X4516333Y-6923571D01*
X4516333Y-6942619D01*
X4506810Y-6971190D01*
X4392524Y-7085476D01*
X4516333Y-7085476D01*
X4687762Y-6885476D02*
X4649667Y-6885476D01*
X4630619Y-6895000D01*
X4621095Y-6904524D01*
X4602048Y-6933095D01*
X4592524Y-6971190D01*
X4592524Y-7047381D01*
X4602048Y-7066428D01*
X4611571Y-7075952D01*
X4630619Y-7085476D01*
X4668714Y-7085476D01*
X4687762Y-7075952D01*
X4697286Y-7066428D01*
X4706810Y-7047381D01*
X4706810Y-6999762D01*
X4697286Y-6980714D01*
X4687762Y-6971190D01*
X4668714Y-6961667D01*
X4630619Y-6961667D01*
X4611571Y-6971190D01*
X4602048Y-6980714D01*
X4592524Y-6999762D01*
X4830619Y-6885476D02*
X4849667Y-6885476D01*
X4868714Y-6895000D01*
X4878238Y-6904524D01*
X4887762Y-6923571D01*
X4897286Y-6961667D01*
X4897286Y-7009286D01*
X4887762Y-7047381D01*
X4878238Y-7066428D01*
X4868714Y-7075952D01*
X4849667Y-7085476D01*
X4830619Y-7085476D01*
X4811571Y-7075952D01*
X4802048Y-7066428D01*
X4792524Y-7047381D01*
X4783000Y-7009286D01*
X4783000Y-6961667D01*
X4792524Y-6923571D01*
X4802048Y-6904524D01*
X4811571Y-6895000D01*
X4830619Y-6885476D01*
X4973476Y-6885476D02*
X4973476Y-6923571D01*
X5049667Y-6885476D02*
X5049667Y-6923571D01*
X5344905Y-7161667D02*
X5335381Y-7152143D01*
X5316333Y-7123571D01*
X5306810Y-7104524D01*
X5297286Y-7075952D01*
X5287762Y-7028333D01*
X5287762Y-6990238D01*
X5297286Y-6942619D01*
X5306810Y-6914048D01*
X5316333Y-6895000D01*
X5335381Y-6866428D01*
X5344905Y-6856905D01*
X5506810Y-6952143D02*
X5506810Y-7085476D01*
X5459190Y-6875952D02*
X5411571Y-7018809D01*
X5535381Y-7018809D01*
X5763952Y-7085476D02*
X5763952Y-6885476D01*
X5849667Y-7085476D02*
X5849667Y-6980714D01*
X5840143Y-6961667D01*
X5821095Y-6952143D01*
X5792524Y-6952143D01*
X5773476Y-6961667D01*
X5763952Y-6971190D01*
X5973476Y-7085476D02*
X5954428Y-7075952D01*
X5944905Y-7066428D01*
X5935381Y-7047381D01*
X5935381Y-6990238D01*
X5944905Y-6971190D01*
X5954428Y-6961667D01*
X5973476Y-6952143D01*
X6002048Y-6952143D01*
X6021095Y-6961667D01*
X6030619Y-6971190D01*
X6040143Y-6990238D01*
X6040143Y-7047381D01*
X6030619Y-7066428D01*
X6021095Y-7075952D01*
X6002048Y-7085476D01*
X5973476Y-7085476D01*
X6154428Y-7085476D02*
X6135381Y-7075952D01*
X6125857Y-7056905D01*
X6125857Y-6885476D01*
X6306809Y-7075952D02*
X6287762Y-7085476D01*
X6249667Y-7085476D01*
X6230619Y-7075952D01*
X6221095Y-7056905D01*
X6221095Y-6980714D01*
X6230619Y-6961667D01*
X6249667Y-6952143D01*
X6287762Y-6952143D01*
X6306809Y-6961667D01*
X6316333Y-6980714D01*
X6316333Y-6999762D01*
X6221095Y-7018809D01*
X6392524Y-7075952D02*
X6411571Y-7085476D01*
X6449667Y-7085476D01*
X6468714Y-7075952D01*
X6478238Y-7056905D01*
X6478238Y-7047381D01*
X6468714Y-7028333D01*
X6449667Y-7018809D01*
X6421095Y-7018809D01*
X6402048Y-7009286D01*
X6392524Y-6990238D01*
X6392524Y-6980714D01*
X6402048Y-6961667D01*
X6421095Y-6952143D01*
X6449667Y-6952143D01*
X6468714Y-6961667D01*
X6544905Y-7161667D02*
X6554428Y-7152143D01*
X6573476Y-7123571D01*
X6583000Y-7104524D01*
X6592524Y-7075952D01*
X6602048Y-7028333D01*
X6602048Y-6990238D01*
X6592524Y-6942619D01*
X6583000Y-6914048D01*
X6573476Y-6895000D01*
X6554428Y-6866428D01*
X6544905Y-6856905D01*
X6906809Y-7161667D02*
X6897286Y-7152143D01*
X6878238Y-7123571D01*
X6868714Y-7104524D01*
X6859190Y-7075952D01*
X6849667Y-7028333D01*
X6849667Y-6990238D01*
X6859190Y-6942619D01*
X6868714Y-6914048D01*
X6878238Y-6895000D01*
X6897286Y-6866428D01*
X6906809Y-6856905D01*
X6983000Y-6952143D02*
X6983000Y-7085476D01*
X6983000Y-6971190D02*
X6992524Y-6961667D01*
X7011571Y-6952143D01*
X7040143Y-6952143D01*
X7059190Y-6961667D01*
X7068714Y-6980714D01*
X7068714Y-7085476D01*
X7192524Y-7085476D02*
X7173476Y-7075952D01*
X7163952Y-7066428D01*
X7154428Y-7047381D01*
X7154428Y-6990238D01*
X7163952Y-6971190D01*
X7173476Y-6961667D01*
X7192524Y-6952143D01*
X7221095Y-6952143D01*
X7240143Y-6961667D01*
X7249667Y-6971190D01*
X7259190Y-6990238D01*
X7259190Y-7047381D01*
X7249667Y-7066428D01*
X7240143Y-7075952D01*
X7221095Y-7085476D01*
X7192524Y-7085476D01*
X7316333Y-6952143D02*
X7392524Y-6952143D01*
X7344905Y-6885476D02*
X7344905Y-7056905D01*
X7354428Y-7075952D01*
X7373476Y-7085476D01*
X7392524Y-7085476D01*
X7611571Y-6952143D02*
X7611571Y-7152143D01*
X7611571Y-6961667D02*
X7630619Y-6952143D01*
X7668714Y-6952143D01*
X7687762Y-6961667D01*
X7697286Y-6971190D01*
X7706809Y-6990238D01*
X7706809Y-7047381D01*
X7697286Y-7066428D01*
X7687762Y-7075952D01*
X7668714Y-7085476D01*
X7630619Y-7085476D01*
X7611571Y-7075952D01*
X7821095Y-7085476D02*
X7802048Y-7075952D01*
X7792524Y-7056905D01*
X7792524Y-6885476D01*
X7983000Y-7085476D02*
X7983000Y-6980714D01*
X7973476Y-6961667D01*
X7954428Y-6952143D01*
X7916333Y-6952143D01*
X7897286Y-6961667D01*
X7983000Y-7075952D02*
X7963952Y-7085476D01*
X7916333Y-7085476D01*
X7897286Y-7075952D01*
X7887762Y-7056905D01*
X7887762Y-7037857D01*
X7897286Y-7018809D01*
X7916333Y-7009286D01*
X7963952Y-7009286D01*
X7983000Y-6999762D01*
X8049667Y-6952143D02*
X8125857Y-6952143D01*
X8078238Y-6885476D02*
X8078238Y-7056905D01*
X8087762Y-7075952D01*
X8106809Y-7085476D01*
X8125857Y-7085476D01*
X8268714Y-7075952D02*
X8249667Y-7085476D01*
X8211571Y-7085476D01*
X8192524Y-7075952D01*
X8183000Y-7056905D01*
X8183000Y-6980714D01*
X8192524Y-6961667D01*
X8211571Y-6952143D01*
X8249667Y-6952143D01*
X8268714Y-6961667D01*
X8278238Y-6980714D01*
X8278238Y-6999762D01*
X8183000Y-7018809D01*
X8449667Y-7085476D02*
X8449667Y-6885476D01*
X8449667Y-7075952D02*
X8430619Y-7085476D01*
X8392524Y-7085476D01*
X8373476Y-7075952D01*
X8363952Y-7066428D01*
X8354428Y-7047381D01*
X8354428Y-6990238D01*
X8363952Y-6971190D01*
X8373476Y-6961667D01*
X8392524Y-6952143D01*
X8430619Y-6952143D01*
X8449667Y-6961667D01*
X8525857Y-7161667D02*
X8535381Y-7152143D01*
X8554429Y-7123571D01*
X8563952Y-7104524D01*
X8573476Y-7075952D01*
X8583000Y-7028333D01*
X8583000Y-6990238D01*
X8573476Y-6942619D01*
X8563952Y-6914048D01*
X8554429Y-6895000D01*
X8535381Y-6866428D01*
X8525857Y-6856905D01*
M02*
